<svg xmlns="http://www.w3.org/2000/svg" viewBox="0 0 291.82822 300.31798"><g id="be7a8d24-8714-4e4a-aa70-28c6c56d47d7" data-name="Calque 2"><g id="ba35039a-88ac-49ba-8feb-b5311eb1f96d" data-name="Calque 1"><path d="M215.01219,262.09128a49.75339,49.75339,0,0,0-2.79505-4.31757A49.45954,49.45954,0,0,0,215.01219,262.09128ZM133.51194,210.217a32.85241,32.85241,0,0,0,1.43445-6.48431A45.71822,45.71822,0,0,0,133.51194,210.217ZM157.83488.78562C-43.34328-17.87839-57.3763,302.22086,145.603,300.28555,332.96482,303.85214,343.74339,12.05759,157.83488.78562ZM279.0764,97.4711c2.89819,14.15387,21.90527,44.62238-5.3418,40.6225-1.06445-.06348-2.36658-3.51642-2.78931-5.57147.80908-11.84571-11.98266-32.23889-5.58789-40.23365C275.79588,87.25369,274.30125,84.51694,279.0764,97.4711Zm-8.48975-9.6615c-8.76917,5.32166-8.52417,5.16468-13.96582-3.32208-4.16455-9.8924-32.29041-34.49475-10.32788-36.31622C255.9177,58.07456,274.90452,73.26193,270.58665,87.8096ZM202.958,244.9241c-14.66114-1.71057-25.658,3.53968-35.45764,14.46283-2.71119-16.67694-14.78223-42.92285,11.00939-43.60156,7.772,9.6117,17.99268,15.9718,33.09058,14.99433-5.75806,16.49145-8.98315,11.05053-16.95972-1.00086C193.53855,232.30277,200.3596,239.24527,202.958,244.9241Zm-69.446-34.70709c-1.87054,5.57318-5.299,9.88086-10.19665,8.47382,13.51269,8.53436.88653,23.51556.61822,39.71246-9.97-10.09607-21.40014-15.01617-36.41272-12.95007,2.0542-5.24072,9.50128-13.154,7.93964-15.669-7.05029,12.49091-9.917,14.62348-16.83038.95831,15.39819,1.65693,26.45178-5.82568,38.03924-15.03375,1.20136.38886,2.29511.80243,3.29865,1.23725a19.94757,19.94757,0,0,1-2.39454-2.08631c.04236-.94525-.23071-2.06311.17737-2.80786,13.20594-31.22644,18.65772-20.60425,17.19562-8.31915.51019-1.77173,1.13055-3.68921,1.87744-5.78644a18.64369,18.64369,0,0,1,6.17383-4.35632,37.81506,37.81506,0,0,1-5.54688-.72712c2.95844-5.97259,1.96119-32.64111,11.18714-24.208,1.86224,11.59247,6.926,22.54925-1.35974,24.61346,7.74469,2.124,10.05316,19.81616,11.19659,28.59668-2.48266.21521-4.77.38379-6.88489.49048,12.78815,3.51013,10.239,24.70264,14.03028,36.17175-20.1825-8.80822-41.761,4.45618-39.433-3.101,3.38782-12.11865.25049-31.67139,15.32569-33.3338C135.15067,221.06741,132.49552,217.80588,133.51194,210.217ZM147.69706,40.60477c11.97907,8.3717,23.65216,11.30066,38.53632,6.21618-1.19531,3.36463-1.95923,5.63251-2.80371,7.86994-6.21167,18.86035-9.08814,31.87115-31.8628,23.19958C143.27586,68.27756,149.49833,53.29013,147.69706,40.60477Zm68.01,34.98706c-8.55908,9.11682-17.54163,25.55688-31.403,14.55212-17.7544-9.18115.43859-28.50494,3.74109-42.2561,7.11523,13.81512,18.42468,19.55237,33.39038,20.82983C219.00633,71.64261,217.42246,73.67612,215.707,75.59183Zm6.83032-1.803a100.67092,100.67092,0,0,1-25.01709,26.02045C204.62181,92.26663,211.50889,77.07175,222.53733,73.78879Zm-73.95056,33.987a30.09716,30.09716,0,0,1,5.06421.47772c-4.54938-2.11285-7.51447-11.16693-5.80041-27.86,6.77594-2.51258,15.34777,5.03015,24.96923,1.59271-3.99188,17.83429-11.497,27.12848-17.32922,26.74237,10.19086,3.32391.39246,14.78375-3.64978,25.92877C143.20732,136.24906,149.81272,114.49381,148.58677,107.77579Zm14.76032,4.64715c3.5061,3.22071,12.891,4.35462,11.032,8.82441C153.53971,147.01383,149.6229,138.98636,163.34709,112.42294Zm-3.79883,26.97077c11.46228-11.7713,21.93146-23.03528,33.22638-34.70783-11.71021,13.61243-17.55567,32.39631-35.05738,38.38245C158.7324,140.9888,158.9661,140.03244,159.54826,139.39371Zm26.6441-30.77728c-4.95886,6.65118-13.93823,11.56805-19.82886,3.04766-3.165-8.63885,5.68726-18.46185,7.425-26.95111C185.23533,93.10318,203.01487,95.41721,186.19236,108.61643Zm-36.50879,29.39721c4.40247.67261,6.48908,8.9148,11.44892,7.43653-4.39545,1.04943,2.193,7.52893-6.03028,10.64709,2.24189,10.04169-11.51623,5.56043-14.52777,7.77893-.85431,8.78394-.29419,20.75989-7.00586,27.0224-6.31085-5.33472,1.39417-21.91876,7.00269-27.01953C130.90019,152.51346,130.92845,133.25827,149.68357,138.01364Zm1.90955,25.77448c8.92615,15.25134,15.06055,37.192,26.74255,51.781-4.6604-3.80468-12.04107,4.53577-18.327,6.03144-.83362-11.10578-9.48664-24.00977,2.595-31.80274C149.21031,197.00052,152.39469,175.07462,151.59312,163.78812Zm-20.56653-16.51538c-3.3786-8.45734-9.76282-15.994-16.467-23.55695,1.941-11.66394,14.10565,11.19367,18.82111,14.79236C135.628,142.88266,129.14512,141.1785,131.02659,147.27274Zm3.57654-10.30805c-28.51367-22.86358-1.60449-38.77514,4.23321-2.07715A2.44189,2.44189,0,0,1,134.60313,136.96469Zm-12.81006-22.69928c-10.163,3.70337-16.45062-12.5086-23.22461-17.23352,7.28015-4.84881,13.79273-9.18512,20.86658-13.89514C121.6287,93.03623,134.28593,106.214,121.79307,114.26541Zm-7.26373,9.41626C107.01786,115.209,99.11521,106.7,94.604,96.819,104.15855,104.268,113.75126,112.62247,114.52934,123.68167ZM71.62791,68.165c15.14905-1.32971,25.88727-7.658,33.33252-21.71088,3.69958,12.59259,11.36468,23.02716,11.68866,34.48249C101.44309,106.89633,85.28758,82.70157,71.62791,68.165Zm5.80414,7.96411c5.47516,6.53174,12.5653,11.86066,16.28253,19.67621C84.39329,95.58414,58.50694,58.00485,77.43205,76.12912Zm45.46356,85.047c6.22131,31.83038-36.48468,73.19-62.61591,39.31494-22.86456-27.88458-18.57885-66.485-6.65985-98.52582C81.70219,116.56143,106.79,133.65762,122.89561,161.17612Zm64.59509,43.54877c-46.67822-42.47791,14.77991-83.1792,52.25195-102.59943C260.9448,139.631,246.13218,241.967,187.4907,204.72489ZM241.573,47.79245c-5.93921,6.23444-8.79492,5.17737-14.3451-1.428,2.64026,8.11487,2.81409,13.78046-2.00695,20.83325q.68994-1.69482,1.37988-3.38964c-12.436,8.50134-30.09131-3.23127-36.19678-15.069-2.61426-9.1314,4.918-18.26184,7.104-27.02276C202.96055,11.7244,241.13291,37.63376,241.573,47.79245ZM152.53062,6.92258c11.65753,5.29468,42.08728,1.18878,44.30188,14.10968-5.44727,6.72436-4.59863,22.97351-15.29,25.52191-12.02814,3.00671-34.01209.546-34.04248-15.28662C149.74577,24.506,142.56272,7.15177,152.53062,6.92258Zm-15.90357,73.23c10.01728-3.13275,11.43787-1.93372,9.72852,21.52588-2.19531,3.62408-4.34521,5.66125-6.40717,6.51031a25.29384,25.29384,0,0,1,3.63324-.4038c6.85279,1.43463,1.303,15.90448,2.99158,21.97058-.648,3.76806-3.7818,7.8786-6.47113,3.38769-2.77673-9.89325-11.8468-21.26825-2.00384-24.49853-7.91364.64093-14.24933-15.43976-16.35669-24.15351,5.80938-1.32007,10.39361-2.903,13.96954-4.04858a23.98935,23.98935,0,0,1-10.86139.19324c-11.77917-4.83124-11.38434-22.34528-18.17615-33.53894,19.32154,8.76751,39.21411-10.73706,39.85492-4.60144C147.02616,56.445,149.16471,75.60556,136.62705,80.15262Zm-117.25384,1.421c8.67688-9.23651,20.13019-42.86157,34.32953-31.618C46.17332,26.96835,117.52915,8.67337,138.86381,6.93509c13.134-2.11682,5.61444,26.65613,4.24371,33.389C116.034,56.3248,107.00675,45.86923,97.73521,27.204c5.55713,13.26032,6.618,26.38129-9.2702,34.73785C41.6721,84.10892,90.16813,3.07352,30.58933,92.787,27.09434,89.44193,15.08482,88.11606,19.37321,81.57364ZM3.62773,126.47428c7.12884-14.00959,4.47961-49.25446,26.96753-32.72077-4.86768,12.55341-1.87043,36.84851-13.64014,43.01917C9.66862,136.37479-1.36214,136.72507,3.62773,126.47428ZM63.85649,268.9606C47.225,260.20011-7.91585,196.93869,15.29814,187.4545c-5.25165.93317-9.9314.25134-9.41626-3.40857-1.58-13.17456-5.3216-26.22809-4.77546-39.54419.85248-7.627,2.66541-7.46619,13.42811-6.67346,13.77,3.83758,7.74774,28.66815,13.74932,40.21027,1.93177,3.15008-3.13385,6.565-8.93756,8.41534a40.81694,40.81694,0,0,1,12.24817.75055c2.15814,13.15637,26.59143,26.4873,17.97168,35.49872,9.75159-5.32831,19.28528,5.86218,29.01642,9.11041,3.18805,6.743,8.87408,13.412,2.852,20.42071C75.71977,256.97135,73.14988,276.58542,63.85649,268.9606Zm54.79736,19.879c-13.99274,5.40546-33.7738-9.5697-48.24664-15.56659,5.27471-8.67517,9.8601-16.36371,14.6502-23.92261,12.07959-7.33239,28.40174-.32885,36.78339,10.38581,2.61877,9.16278-2.533,19.6416-3.1864,29.104Zm50.51861,3.79517c-23.42157.961-59.90136,12.58539-45.568-23.78772,3.59485-15.5437,25.96381-14.73609,37.65442-8.89246,10.197,5.92481,7.291,20.9112,11.29175,30.83057C171.42723,291.421,170.367,292.44016,169.17246,292.6348ZM276.5012,211.94455c-6.37524,13.47778-15.85645,22.79828-22.60376,35.19855-10.41113,5.59765-24.29517,31.04925-34.6106,20.28851a67.61745,67.61745,0,0,1-4.27465-5.34033,64.3812,64.3812,0,0,1,3.425,6.829c3.36132,12.58887-29.40894,14.30219-38.47242,20.93634-1.96264.73077-4.23413.6322-6.36267.91687-.26379-10.72565-9.38141-24.188-2.01611-33.46814,15.85608-16.15185,30.40527-13.57153,40.6311.46832-11.46863-20.06762,3.16687-32.45855,27.53723-34.89642-.68335-10.70941,17.78077-19.83594,20.44239-32.38867,3.51208-7.40479,12.84692.15259,18.76342.38837,8.15821,3.33312-2.01733,14.89257-2.46008,21.06939,2.05493-4.35107,4.10974-8.70227,6.12805-12.97589C280.60984,203.244,278.55528,207.59482,276.5012,211.94455Zm2.65576-22.45508c-29.17285-3.11987-4.8457-20.87848-7.65112-44.97857.1897-3.38709,1.5813-4.42371,4.82348-4.85364,14.74854-1.95581,11.16639-1.38794,13.45716,13.74566C285.74766,161.31424,291.26182,188.80039,279.157,189.48947ZM123.31529,218.69083a24.49929,24.49929,0,0,0-3.34735-1.74481A10.79039,10.79039,0,0,0,123.31529,218.69083ZM97.73521,27.204c-1.18976-2.839-2.58136-5.6842-4.06159-8.49054C95.06858,21.677,96.4044,24.52475,97.73521,27.204ZM49.56614,222.70316a15.53945,15.53945,0,0,0-3.16077,2.32312A12.84289,12.84289,0,0,0,49.56614,222.70316Zm-34.268-35.24866a31.66234,31.66234,0,0,0,4.04815-1.00061A15.8578,15.8578,0,0,0,15.29814,187.4545Zm138.35284-79.201a5.14791,5.14791,0,0,0,1.8396.4751A15.17962,15.17962,0,0,0,153.651,108.25351Zm-2.0611,114.10193a16.86149,16.86149,0,0,0-6.4981-.34045,21.00033,21.00033,0,0,0-3.57892.07739A50.12568,50.12568,0,0,0,151.58988,222.35544ZM139.9484,108.18881a15.03916,15.03916,0,0,0-1.85015.45594A6.14673,6.14673,0,0,0,139.9484,108.18881Zm7.32978,85.07947a6.78338,6.78338,0,0,0-4.28052.32166A15.00562,15.00562,0,0,0,147.27818,193.26828Z"/></g></g></svg>